<svg width="573.3999877929688px" height="136.439990234375px" xmlns="http://www.w3.org/2000/svg" viewBox="-36.699993896484386 6.780004882812506 573.3999877929688 136.439990234375" style="background: none;" preserveAspectRatio="xMidYMid"><defs><linearGradient id="editing-gradow-gradient" x1="0" x2="1" y1="0.5" y2="0.5" gradientUnits="objectBoundingBox"><stop offset="0" stop-color="#40c6fe"></stop><stop offset="1" stop-color="#466dfb"></stop></linearGradient><filter id="editing-gradow-filter" x="-100%" y="-100%" width="300%" height="300%"><feFlood flood-color="#080f29" result="flood"></feFlood><feComposite operator="in" in2="SourceAlpha" in="flood" result="shadow"></feComposite><feOffset dx="-4" dy="-4" in="SourceGraphic" result="offset-1"></feOffset><feOffset dx="4" dy="4" in="shadow" result="offset-2"></feOffset><feMerge><feMergeNode in="offset-2"></feMergeNode><feMergeNode in="offset-1"></feMergeNode></feMerge></filter></defs><g filter="url(#editing-gradow-filter)"><g transform="translate(48.29999679327011, 99.45499992370605)"><path d="M24.31 0L10.31 0L10.31-34L0.31-34L0.31-44.19L34.53-44.19L34.53-34L24.31-34L24.31 0ZM39.63 0.91L39.63 0.91L39.63 0.91Q37.63 0.91 35.80 0.34L35.80 0.34L35.80 0.34Q33.97-0.22 32.56-1.38L32.56-1.38L32.56-1.38Q31.16-2.53 30.33-4.30L30.33-4.30L30.33-4.30Q29.50-6.06 29.50-8.47L29.50-8.47L29.50-8.47Q29.50-10.78 30.25-12.48L30.25-12.48L30.25-12.48Q31-14.19 32.27-15.41L32.27-15.41L32.27-15.41Q33.53-16.63 35.23-17.42L35.23-17.42L35.23-17.42Q36.94-18.22 38.84-18.67L38.84-18.67L38.84-18.67Q40.75-19.13 42.77-19.30L42.77-19.30L42.77-19.30Q44.78-19.47 46.69-19.47L46.69-19.47L46.69-19.47Q48-19.47 49.22-19.41L49.22-19.41L49.22-19.41Q50.44-19.34 51.50-19.25L51.50-19.25L51.50-19.25Q51.44-21.22 50.75-22.52L50.75-22.52L50.75-22.52Q50.06-23.81 48.94-24.58L48.94-24.58L48.94-24.58Q47.81-25.34 46.31-25.66L46.31-25.66L46.31-25.66Q44.81-25.97 43.16-25.97L43.16-25.97L43.16-25.97Q41.63-25.97 40.02-25.77L40.02-25.77L40.02-25.77Q38.41-25.56 36.88-25.27L36.88-25.27L36.88-25.27Q35.34-24.97 33.95-24.63L33.95-24.63L33.95-24.63Q32.56-24.28 31.50-24L31.50-24L31.50-32.75L31.50-32.75Q33.03-33.09 34.80-33.42L34.80-33.42L34.80-33.42Q36.56-33.75 38.47-34L38.47-34L38.47-34Q40.38-34.25 42.36-34.41L42.36-34.41L42.36-34.41Q44.34-34.56 46.28-34.56L46.28-34.56L46.28-34.56Q48.69-34.56 51.02-34.27L51.02-34.27L51.02-34.27Q53.34-33.97 55.42-33.28L55.42-33.28L55.42-33.28Q57.50-32.59 59.27-31.44L59.27-31.44L59.27-31.44Q61.03-30.28 62.30-28.58L62.30-28.58L62.30-28.58Q63.56-26.88 64.28-24.56L64.28-24.56L64.28-24.56Q65-22.25 65-19.22L65-19.22L65 0L52.13 0L52.13-5.59L52.13-5.59Q51.38-4.06 50.03-2.86L50.03-2.86L50.03-2.86Q48.69-1.66 47-0.81L47-0.81L47-0.81Q45.31 0.03 43.41 0.47L43.41 0.47L43.41 0.47Q41.50 0.91 39.63 0.91ZM44.91-6.44L44.91-6.44L44.91-6.44Q45.78-6.44 46.92-6.92L46.92-6.92L46.92-6.92Q48.06-7.41 49.08-8.41L49.08-8.41L49.08-8.41Q50.09-9.41 50.80-10.94L50.80-10.94L50.80-10.94Q51.50-12.47 51.50-14.59L51.50-14.59L50.47-14.59L50.47-14.59Q48.97-14.59 47.39-14.28L47.39-14.28L47.39-14.28Q45.81-13.97 44.50-13.34L44.50-13.34L44.50-13.34Q43.19-12.72 42.34-11.81L42.34-11.81L42.34-11.81Q41.50-10.91 41.50-9.72L41.50-9.72L41.50-9.72Q41.50-8.78 41.81-8.16L41.81-8.16L41.81-8.16Q42.13-7.53 42.61-7.14L42.61-7.14L42.61-7.14Q43.09-6.75 43.70-6.59L43.70-6.59L43.70-6.59Q44.31-6.44 44.91-6.44ZM74.06 0L74.06-48L87.56-48L87.56 0L74.06 0ZM128.56-10.22L128.56-1.34L128.56-1.34Q125.63-0.38 122.22 0.27L122.22 0.27L122.22 0.27Q118.81 0.91 115.13 0.91L115.13 0.91L115.13 0.91Q111.09 0.91 107.44-0.16L107.44-0.16L107.44-0.16Q103.78-1.22 101-3.47L101-3.47L101-3.47Q98.22-5.72 96.58-9.17L96.58-9.17L96.58-9.17Q94.94-12.63 94.94-17.41L94.94-17.41L94.94-17.41Q94.94-20.13 95.78-22.45L95.78-22.45L95.78-22.45Q96.63-24.78 98.08-26.69L98.08-26.69L98.08-26.69Q99.53-28.59 101.48-30.06L101.48-30.06L101.48-30.06Q103.44-31.53 105.67-32.53L105.67-32.53L105.67-32.53Q107.91-33.53 110.28-34.05L110.28-34.05L110.28-34.05Q112.66-34.56 114.94-34.56L114.94-34.56L114.94-34.56Q118.53-34.56 121.28-33.77L121.28-33.77L121.28-33.77Q124.03-32.97 125.86-31.63L125.86-31.63L125.86-31.63Q127.69-30.28 128.63-28.50L128.63-28.50L128.63-28.50Q129.56-26.72 129.56-24.72L129.56-24.72L129.56-24.72Q129.56-22.28 128.73-20.56L128.73-20.56L128.73-20.56Q127.91-18.84 126.52-17.67L126.52-17.67L126.52-17.67Q125.13-16.50 123.30-15.83L123.30-15.83L123.30-15.83Q121.47-15.16 119.44-14.80L119.44-14.80L119.44-14.80Q117.41-14.44 115.30-14.34L115.30-14.34L115.30-14.34Q113.19-14.25 111.28-14.25L111.28-14.25L111.28-14.25Q110.63-14.25 110.02-14.27L110.02-14.27L110.02-14.27Q109.41-14.28 108.81-14.28L108.81-14.28L108.81-14.28Q109.06-12.50 109.80-11.28L109.80-11.28L109.80-11.28Q110.53-10.06 111.64-9.30L111.64-9.30L111.64-9.30Q112.75-8.53 114.20-8.20L114.20-8.20L114.20-8.20Q115.66-7.88 117.31-7.88L117.31-7.88L117.31-7.88Q118.56-7.88 119.98-8.06L119.98-8.06L119.98-8.06Q121.41-8.25 122.86-8.58L122.86-8.58L122.86-8.58Q124.31-8.91 125.77-9.33L125.77-9.33L125.77-9.33Q127.22-9.75 128.56-10.22L128.56-10.22ZM108.53-19.09L108.53-19.09L108.53-19.09Q109.28-19.13 110.45-19.19L110.45-19.19L110.45-19.19Q111.63-19.25 112.94-19.41L112.94-19.41L112.94-19.41Q114.25-19.56 115.56-19.84L115.56-19.84L115.56-19.84Q116.88-20.13 117.94-20.56L117.94-20.56L117.94-20.56Q119-21 119.66-21.66L119.66-21.66L119.66-21.66Q120.31-22.31 120.31-23.25L120.31-23.25L120.31-23.25Q120.31-24.84 119.05-25.80L119.05-25.80L119.05-25.80Q117.78-26.75 115.53-26.75L115.53-26.75L115.53-26.75Q114.50-26.75 113.31-26.45L113.31-26.45L113.31-26.45Q112.13-26.16 111.09-25.31L111.09-25.31L111.09-25.31Q110.06-24.47 109.34-22.97L109.34-22.97L109.34-22.97Q108.63-21.47 108.53-19.09ZM137.84 0L137.84-33.72L151.34-33.72L151.34-33.72Q151.16-32.66 150.97-30.98L150.97-30.98L150.97-30.98Q150.78-29.31 150.78-27.53L150.78-27.53L150.78-27.53Q151.84-29.13 153.45-30.42L153.45-30.42L153.45-30.42Q155.06-31.72 157-32.64L157-32.64L157-32.64Q158.94-33.56 161.11-34.06L161.11-34.06L161.11-34.06Q163.28-34.56 165.50-34.56L165.50-34.56L165.50-34.56Q167.94-34.56 170.13-33.83L170.13-33.83L170.13-33.83Q172.31-33.09 173.97-31.50L173.97-31.50L173.97-31.50Q175.63-29.91 176.59-27.36L176.59-27.36L176.59-27.36Q177.56-24.81 177.56-21.19L177.56-21.19L177.56 0L164.06 0L164.06-19.22L164.06-19.22Q164.06-21.16 163.66-22.44L163.66-22.44L163.66-22.44Q163.25-23.72 162.53-24.47L162.53-24.47L162.53-24.47Q161.81-25.22 160.83-25.53L160.83-25.53L160.83-25.53Q159.84-25.84 158.69-25.84L158.69-25.84L158.69-25.84Q157.44-25.84 156.22-25.42L156.22-25.42L156.22-25.42Q155-25 154-24.28L154-24.28L154-24.28Q153-23.56 152.28-22.59L152.28-22.59L152.28-22.59Q151.56-21.63 151.34-20.53L151.34-20.53L151.34 0L137.84 0ZM203.75 0.91L203.75 0.91L203.75 0.91Q200.84 0.91 198.19 0.20L198.19 0.20L198.19 0.20Q195.53-0.50 193.52-2.17L193.52-2.17L193.52-2.17Q191.50-3.84 190.30-6.61L190.30-6.61L190.30-6.61Q189.09-9.38 189.09-13.50L189.09-13.50L189.09-25.97L182.88-25.97L182.88-28L197.59-44L202.59-44L202.59-33.72L212.59-33.72L212.59-33.72Q212.22-31.84 211.92-29.94L211.92-29.94L211.92-29.94Q211.63-28.03 211.59-25.97L211.59-25.97L202.59-25.97L202.59-13.63L202.59-13.63Q202.59-12.50 202.77-11.45L202.77-11.45L202.77-11.45Q202.94-10.41 203.47-9.61L203.47-9.61L203.47-9.61Q204-8.81 205-8.33L205-8.33L205-8.33Q206-7.84 207.66-7.84L207.66-7.84L207.66-7.84Q208.72-7.84 210-8.05L210-8.05L210-8.05Q211.28-8.25 212.91-8.81L212.91-8.81L213.66-0.72L213.66-0.72Q211.69 0 209.14 0.45L209.14 0.45L209.14 0.45Q206.59 0.91 203.75 0.91ZM242.63 0L242.63-44.19L272.88-44.19L272.88-36L256.63-36L256.63-26.56L270.88-26.56L270.88-17.56L256.63-17.56L256.63 0L242.63 0ZM279.66 0L279.66-48L293.16-48L293.16 0L279.66 0ZM320.03 0.91L320.03 0.91L320.03 0.91Q316.34 0.91 313.47 0.22L313.47 0.22L313.47 0.22Q310.59-0.47 308.44-1.69L308.44-1.69L308.44-1.69Q306.28-2.91 304.77-4.58L304.77-4.58L304.77-4.58Q303.25-6.25 302.31-8.22L302.31-8.22L302.31-8.22Q301.38-10.19 300.95-12.38L300.95-12.38L300.95-12.38Q300.53-14.56 300.53-16.81L300.53-16.81L300.53-16.81Q300.53-19.03 300.95-21.20L300.95-21.20L300.95-21.20Q301.38-23.38 302.31-25.36L302.31-25.36L302.31-25.36Q303.25-27.34 304.75-29.02L304.75-29.02L304.75-29.02Q306.25-30.69 308.42-31.92L308.42-31.92L308.42-31.92Q310.59-33.16 313.47-33.86L313.47-33.86L313.47-33.86Q316.34-34.56 320.03-34.56L320.03-34.56L320.03-34.56Q323.72-34.56 326.59-33.86L326.59-33.86L326.59-33.86Q329.47-33.16 331.64-31.92L331.64-31.92L331.64-31.92Q333.81-30.69 335.31-29.02L335.31-29.02L335.31-29.02Q336.81-27.34 337.75-25.36L337.75-25.36L337.75-25.36Q338.69-23.38 339.11-21.20L339.11-21.20L339.11-21.20Q339.53-19.03 339.53-16.81L339.53-16.81L339.53-16.81Q339.53-14.56 339.11-12.38L339.11-12.38L339.11-12.38Q338.69-10.19 337.75-8.22L337.75-8.22L337.75-8.22Q336.81-6.25 335.30-4.58L335.30-4.58L335.30-4.58Q333.78-2.91 331.63-1.69L331.63-1.69L331.63-1.69Q329.47-0.47 326.59 0.22L326.59 0.22L326.59 0.22Q323.72 0.91 320.03 0.91ZM314.03-16.81L314.03-16.81L314.03-16.81Q314.03-15.13 314.34-13.52L314.34-13.52L314.34-13.52Q314.66-11.91 315.36-10.64L315.36-10.64L315.36-10.64Q316.06-9.38 317.20-8.61L317.20-8.61L317.20-8.61Q318.34-7.84 320.03-7.84L320.03-7.84L320.03-7.84Q321.72-7.84 322.86-8.61L322.86-8.61L322.86-8.61Q324-9.38 324.70-10.64L324.70-10.64L324.70-10.64Q325.41-11.91 325.72-13.52L325.72-13.52L325.72-13.52Q326.03-15.13 326.03-16.81L326.03-16.81L326.03-16.81Q326.03-18.50 325.72-20.11L325.72-20.11L325.72-20.11Q325.41-21.72 324.70-22.98L324.70-22.98L324.70-22.98Q324-24.25 322.86-25.03L322.86-25.03L322.86-25.03Q321.72-25.81 320.03-25.81L320.03-25.81L320.03-25.81Q318.34-25.81 317.20-25.03L317.20-25.03L317.20-25.03Q316.06-24.25 315.36-22.98L315.36-22.98L315.36-22.98Q314.66-21.72 314.34-20.11L314.34-20.11L314.34-20.11Q314.03-18.50 314.03-16.81ZM352.19 0L344.09-33.72L358.47-33.72L363.50-8.16L368.53-33.72L383.22-33.72L388.84-8.16L392.41-33.72L403.09-33.72L396.09 0L378.72 0L374.38-21.81L370.44 0L352.19 0Z" fill="url(#editing-gradow-gradient)"></path></g></g><style>text {
  font-size: 64px;
  font-family: Arial Black;
  dominant-baseline: central;
  text-anchor: middle;
}</style></svg>